<svg width="30" height="24" viewBox="0 0 30 24" fill="none" xmlns="http://www.w3.org/2000/svg">
<path fill-rule="evenodd" clip-rule="evenodd" d="M3 0C2.20435 0 1.44129 0.31607 0.87868 0.87868C0.31607 1.44129 0 2.20435 0 3V21C0 21.7956 0.31607 22.5587 0.87868 23.1213C1.44129 23.6839 2.20435 24 3 24H27C27.7956 24 28.5587 23.6839 29.1213 23.1213C29.6839 22.5587 30 21.7956 30 21V3C30 2.20435 29.6839 1.44129 29.1213 0.87868C28.5587 0.31607 27.7956 0 27 0H3ZM18 7.5C18 7.10218 18.158 6.72064 18.4393 6.43934C18.7206 6.15804 19.1022 6 19.5 6H24C24.3978 6 24.7794 6.15804 25.0607 6.43934C25.342 6.72064 25.5 7.10218 25.5 7.5C25.5 7.89782 25.342 8.27936 25.0607 8.56066C24.7794 8.84196 24.3978 9 24 9H19.5C19.1022 9 18.7206 8.84196 18.4393 8.56066C18.158 8.27936 18 7.89782 18 7.5ZM18 12C18 11.6022 18.158 11.2206 18.4393 10.9393C18.7206 10.658 19.1022 10.5 19.5 10.5H24C24.3978 10.5 24.7794 10.658 25.0607 10.9393C25.342 11.2206 25.5 11.6022 25.5 12C25.5 12.3978 25.342 12.7794 25.0607 13.0607C24.7794 13.342 24.3978 13.5 24 13.5H19.5C19.1022 13.5 18.7206 13.342 18.4393 13.0607C18.158 12.7794 18 12.3978 18 12ZM18 16.5C18 16.1022 18.158 15.7206 18.4393 15.4393C18.7206 15.158 19.1022 15 19.5 15H24C24.3978 15 24.7794 15.158 25.0607 15.4393C25.342 15.7206 25.5 16.1022 25.5 16.5C25.5 16.8978 25.342 17.2794 25.0607 17.5607C24.7794 17.842 24.3978 18 24 18H19.5C19.1022 18 18.7206 17.842 18.4393 17.5607C18.158 17.2794 18 16.8978 18 16.5ZM6 9C6 7.80653 6.47411 6.66193 7.31802 5.81802C8.16193 4.97411 9.30653 4.5 10.5 4.5C11.6935 4.5 12.8381 4.97411 13.682 5.81802C14.5259 6.66193 15 7.80653 15 9C15 10.1935 14.5259 11.3381 13.682 12.182C12.8381 13.0259 11.6935 13.5 10.5 13.5C9.30653 13.5 8.16193 13.0259 7.31802 12.182C6.47411 11.3381 6 10.1935 6 9ZM8.913 15C7.96834 14.9997 7.04754 15.2966 6.28107 15.8488C5.51459 16.401 4.94133 17.1804 4.6425 18.0765L4.5765 18.276L4.5705 18.294C4.5075 18.483 4.488 18.5445 4.5075 18.5865C4.5165 18.606 4.5375 18.621 4.5645 18.645C4.6125 18.6825 4.6845 18.741 4.7835 18.8775C4.92248 19.0702 5.10525 19.2271 5.31675 19.3353C5.52824 19.4436 5.76242 19.5 6 19.5H15C15.2376 19.5 15.4718 19.4436 15.6833 19.3353C15.8948 19.2271 16.0775 19.0702 16.2165 18.8775C16.2772 18.7893 16.3511 18.7109 16.4355 18.645C16.464 18.621 16.482 18.606 16.4925 18.585C16.5135 18.5445 16.4925 18.483 16.4295 18.294L16.4235 18.276L16.3575 18.0765C16.0588 17.1806 15.4857 16.4014 14.7195 15.8492C13.9534 15.2971 13.0329 15 12.0885 15H8.913Z" fill="#5DA7FF"/>
</svg>
