<svg width="102" height="23" viewBox="0 0 102 23" fill="none" xmlns="http://www.w3.org/2000/svg">
<path d="M16.1648 6.86932H11.9034C11.8466 6.43182 11.7301 6.03693 11.554 5.68466C11.3778 5.33239 11.1449 5.03125 10.8551 4.78125C10.5653 4.53125 10.2216 4.34091 9.82386 4.21023C9.43182 4.07386 8.99716 4.00568 8.51989 4.00568C7.6733 4.00568 6.94318 4.21307 6.32955 4.62784C5.72159 5.04261 5.25284 5.64205 4.9233 6.42614C4.59943 7.21023 4.4375 8.15909 4.4375 9.27273C4.4375 10.4318 4.60227 11.4034 4.93182 12.1875C5.26705 12.9659 5.7358 13.554 6.33807 13.9517C6.94602 14.3437 7.66477 14.5398 8.49432 14.5398C8.96023 14.5398 9.38352 14.4801 9.7642 14.3608C10.1506 14.2415 10.4886 14.0682 10.7784 13.8409C11.0739 13.608 11.3153 13.3267 11.5028 12.9972C11.696 12.6619 11.8295 12.2841 11.9034 11.8636L16.1648 11.8892C16.0909 12.6619 15.8665 13.4233 15.4915 14.1733C15.1222 14.9233 14.6136 15.608 13.9659 16.2273C13.3182 16.8409 12.5284 17.3295 11.5966 17.6932C10.6705 18.0568 9.60795 18.2386 8.40909 18.2386C6.82955 18.2386 5.41477 17.892 4.16477 17.1989C2.92045 16.5 1.9375 15.483 1.21591 14.1477C0.494318 12.8125 0.133523 11.1875 0.133523 9.27273C0.133523 7.35227 0.5 5.72443 1.23295 4.3892C1.96591 3.05398 2.95739 2.03977 4.20739 1.34659C5.45739 0.653409 6.85795 0.306818 8.40909 0.306818C9.46591 0.306818 10.4432 0.454545 11.3409 0.75C12.2386 1.03977 13.0284 1.46591 13.7102 2.02841C14.392 2.58523 14.946 3.26989 15.3722 4.08239C15.7983 4.89489 16.0625 5.82386 16.1648 6.86932ZM22.2692 18.2216C21.4339 18.2216 20.6925 18.0824 20.0447 17.804C19.4027 17.5199 18.8942 17.0937 18.5192 16.5256C18.1499 15.9517 17.9652 15.233 17.9652 14.3693C17.9652 13.642 18.093 13.0284 18.3487 12.5284C18.6044 12.0284 18.9567 11.6222 19.4055 11.3097C19.8544 10.9972 20.3714 10.7614 20.9567 10.6023C21.5419 10.4375 22.1669 10.3267 22.8317 10.2699C23.576 10.2017 24.1754 10.1307 24.63 10.0568C25.0845 9.97727 25.4141 9.86648 25.6186 9.72443C25.8288 9.5767 25.9339 9.36932 25.9339 9.10227V9.05966C25.9339 8.62216 25.7834 8.28409 25.4822 8.04545C25.1811 7.80682 24.7749 7.6875 24.2635 7.6875C23.7124 7.6875 23.2692 7.80682 22.9339 8.04545C22.5987 8.28409 22.3857 8.61364 22.2947 9.03409L18.451 8.89773C18.5646 8.10227 18.8572 7.39205 19.3288 6.76705C19.8061 6.13636 20.4595 5.64205 21.2891 5.28409C22.1243 4.92045 23.1271 4.73864 24.2976 4.73864C25.1328 4.73864 25.9027 4.83807 26.6072 5.03693C27.3118 5.23011 27.9254 5.5142 28.4482 5.8892C28.9709 6.25852 29.3743 6.71307 29.6584 7.25284C29.9482 7.79261 30.093 8.40909 30.093 9.10227V18H26.1726V16.1761H26.0703C25.8374 16.6193 25.5391 16.9943 25.1754 17.3011C24.8175 17.608 24.3942 17.8381 23.9055 17.9915C23.4226 18.1449 22.8771 18.2216 22.2692 18.2216ZM23.5561 15.4943C24.005 15.4943 24.4084 15.4034 24.7663 15.2216C25.13 15.0398 25.4197 14.7898 25.6357 14.4716C25.8516 14.1477 25.9595 13.7727 25.9595 13.3466V12.1023C25.8402 12.1648 25.6953 12.2216 25.5249 12.2727C25.3601 12.3239 25.1783 12.3722 24.9794 12.4176C24.7805 12.4631 24.576 12.5028 24.3658 12.5369C24.1555 12.571 23.9538 12.6023 23.7607 12.6307C23.3686 12.6932 23.0334 12.7898 22.755 12.9205C22.4822 13.0511 22.272 13.2216 22.1243 13.4318C21.9822 13.6364 21.9112 13.8807 21.9112 14.1648C21.9112 14.5966 22.0646 14.9261 22.3714 15.1534C22.6839 15.3807 23.0788 15.4943 23.5561 15.4943ZM32.6413 18V4.90909H36.6896V7.29545H36.826C37.0646 6.43182 37.4538 5.78977 37.9936 5.36932C38.5334 4.94318 39.1612 4.73011 39.8771 4.73011C40.0703 4.73011 40.2692 4.74432 40.4737 4.77273C40.6783 4.79545 40.8686 4.83239 41.0447 4.88352V8.50568C40.8459 8.4375 40.5845 8.38352 40.2607 8.34375C39.9425 8.30398 39.6584 8.28409 39.4084 8.28409C38.9141 8.28409 38.468 8.39489 38.0703 8.61648C37.6783 8.83239 37.3686 9.13636 37.1413 9.52841C36.9197 9.91477 36.8089 10.3693 36.8089 10.892V18H32.6413ZM42.7429 18V4.90909H46.7912V7.29545H46.9276C47.1662 6.43182 47.5554 5.78977 48.0952 5.36932C48.6349 4.94318 49.2628 4.73011 49.9787 4.73011C50.1719 4.73011 50.3707 4.74432 50.5753 4.77273C50.7798 4.79545 50.9702 4.83239 51.1463 4.88352V8.50568C50.9474 8.4375 50.6861 8.38352 50.3622 8.34375C50.044 8.30398 49.7599 8.28409 49.5099 8.28409C49.0156 8.28409 48.5696 8.39489 48.1719 8.61648C47.7798 8.83239 47.4702 9.13636 47.2429 9.52841C47.0213 9.91477 46.9105 10.3693 46.9105 10.892V18H42.7429ZM55.7912 22.9091C55.2912 22.9091 54.8196 22.8693 54.3764 22.7898C53.9332 22.7159 53.5526 22.6165 53.2344 22.4915L54.1548 19.4659C54.5639 19.6023 54.9332 19.6818 55.2628 19.7045C55.598 19.7273 55.8849 19.6733 56.1236 19.5426C56.3679 19.4176 56.5554 19.1932 56.6861 18.8693L56.848 18.4773L52.1946 4.90909H56.5582L58.9702 14.25H59.1065L61.5526 4.90909H65.9418L61.0071 19.2528C60.7685 19.9688 60.4304 20.5994 59.9929 21.1449C59.5611 21.696 59.0014 22.1278 58.3139 22.4403C57.6321 22.7528 56.7912 22.9091 55.7912 22.9091ZM83.2557 0.545454H87.4659V11.804C87.4659 13.1051 87.1563 14.2386 86.5369 15.2045C85.9176 16.1648 85.054 16.9091 83.946 17.4375C82.8381 17.9602 81.5511 18.2216 80.0852 18.2216C78.6023 18.2216 77.3068 17.9602 76.1989 17.4375C75.0909 16.9091 74.2301 16.1648 73.6165 15.2045C73.0028 14.2386 72.696 13.1051 72.696 11.804V0.545454H76.9148V11.4375C76.9148 12.0398 77.0455 12.5767 77.3068 13.0483C77.5739 13.5199 77.946 13.8892 78.4233 14.1562C78.9006 14.4233 79.4545 14.5568 80.0852 14.5568C80.7159 14.5568 81.267 14.4233 81.7386 14.1562C82.2159 13.8892 82.5881 13.5199 82.8551 13.0483C83.1222 12.5767 83.2557 12.0398 83.2557 11.4375V0.545454ZM101.539 8.90625L97.7124 9.00852C97.6726 8.7358 97.5646 8.49432 97.3885 8.28409C97.2124 8.06818 96.9822 7.90057 96.6982 7.78125C96.4197 7.65625 96.0959 7.59375 95.7266 7.59375C95.2436 7.59375 94.8317 7.69034 94.4908 7.88352C94.1555 8.0767 93.9908 8.33807 93.9964 8.66761C93.9908 8.9233 94.093 9.14489 94.3033 9.33239C94.5192 9.51989 94.9027 9.67045 95.4538 9.78409L97.9766 10.2614C99.2834 10.5114 100.255 10.9261 100.891 11.5057C101.533 12.0852 101.857 12.8523 101.863 13.8068C101.857 14.7045 101.59 15.4858 101.062 16.1506C100.539 16.8153 99.8232 17.3324 98.9141 17.7017C98.005 18.0653 96.9652 18.2472 95.7947 18.2472C93.9254 18.2472 92.451 17.8636 91.3714 17.0966C90.2976 16.3239 89.6839 15.2898 89.5305 13.9943L93.647 13.892C93.7379 14.3693 93.9737 14.733 94.3544 14.983C94.7351 15.233 95.2209 15.358 95.8118 15.358C96.3459 15.358 96.7805 15.2585 97.1158 15.0597C97.451 14.8608 97.6214 14.5966 97.6271 14.267C97.6214 13.9716 97.4908 13.7358 97.2351 13.5597C96.9794 13.3778 96.5788 13.2358 96.0334 13.1335L93.7493 12.6989C92.4368 12.4602 91.4595 12.0199 90.8175 11.3778C90.1754 10.7301 89.8572 9.90625 89.8629 8.90625C89.8572 8.03125 90.0902 7.28409 90.5618 6.66477C91.0334 6.03977 91.7038 5.5625 92.5732 5.23295C93.4425 4.90341 94.468 4.73864 95.6499 4.73864C97.4226 4.73864 98.8203 5.1108 99.843 5.85511C100.866 6.59375 101.431 7.6108 101.539 8.90625Z" fill="url(#paint0_linear_505_8718)"/>
<defs>
<linearGradient id="paint0_linear_505_8718" x1="144.274" y1="9.26228" x2="-39.9417" y2="9.26228" gradientUnits="userSpaceOnUse">
<stop offset="0.0001" stop-color="#00F0FF"/>
<stop offset="0.975" stop-color="#E600FF"/>
</linearGradient>
</defs>
</svg>
