<svg width="32" height="32" viewBox="0 0 32 32" fill="none" xmlns="http://www.w3.org/2000/svg">
<path d="M3.48792 26.155C2.8737 26.155 2.36125 25.9493 1.95059 25.5377C1.53992 25.1261 1.33414 24.6137 1.33325 24.0004V8.00037C1.33325 7.38704 1.53903 6.87459 1.95059 6.46304C2.36214 6.05148 2.87414 5.8457 3.48659 5.8457H28.5133C29.1266 5.8457 29.639 6.05148 30.0506 6.46304C30.4621 6.87459 30.6675 7.38704 30.6666 8.00037V24.0004C30.6666 24.6137 30.4613 25.1261 30.0506 25.5377C29.6399 25.9493 29.1275 26.155 28.5133 26.155H3.48792ZM11.9999 18.9737C12.9235 18.9737 13.7101 18.6488 14.3599 17.999C15.0097 17.3493 15.3341 16.5626 15.3333 15.639C15.3324 14.7155 15.0079 13.9297 14.3599 13.2817C13.7119 12.6337 12.9253 12.3088 11.9999 12.307C11.0746 12.3053 10.2879 12.6297 9.63992 13.2804C8.99192 13.931 8.66747 14.7177 8.66659 15.6404C8.6657 16.563 8.99014 17.3493 9.63992 17.999C10.2897 18.6488 11.0764 18.9746 11.9999 18.9737ZM4.28792 24.8204H19.7133C18.7799 23.615 17.6448 22.647 16.3079 21.9164C14.971 21.1857 13.535 20.8208 11.9999 20.8217C10.4648 20.8226 9.02925 21.1879 7.69325 21.9177C6.35725 22.6475 5.22214 23.6141 4.28792 24.8204ZM22.1546 16.0004C22.1546 15.4999 22.1901 15.0328 22.2613 14.599C22.3324 14.1653 22.4524 13.675 22.6213 13.1284H24.3839C24.5555 13.1284 24.7128 13.0928 24.8559 13.0217C24.9999 12.9488 25.1301 12.8408 25.2466 12.6977L26.0186 11.6777C26.1839 11.4626 26.2555 11.2226 26.2333 10.9577C26.211 10.6928 26.1035 10.4635 25.9106 10.2697L25.1559 9.51637C24.9461 9.3057 24.6973 9.19904 24.4093 9.19637C24.123 9.1937 23.8719 9.2977 23.6559 9.50837C22.7866 10.3626 22.1221 11.3519 21.6626 12.4764C21.2039 13.5999 20.9746 14.7746 20.9746 16.0004C20.9746 17.2261 21.2039 18.4008 21.6626 19.5244C22.1221 20.6488 22.7866 21.6381 23.6559 22.4924C23.8719 22.703 24.1235 22.807 24.4106 22.8044C24.6977 22.8017 24.9466 22.695 25.1573 22.4844L25.9106 21.731C26.1035 21.5381 26.211 21.3093 26.2333 21.0444C26.2555 20.7795 26.1839 20.5395 26.0186 20.3244L25.2453 19.303C25.1297 19.1599 24.9999 19.0524 24.8559 18.9804C24.7119 18.9084 24.555 18.8724 24.3853 18.8724H22.6199C22.4528 18.3701 22.3333 17.891 22.2613 17.435C22.1893 16.979 22.1537 16.5008 22.1546 16.0004Z" fill="#5DA7FF"/>
</svg>
