<svg width="77" height="24" viewBox="0 0 77 24" fill="none" xmlns="http://www.w3.org/2000/svg">
<g clip-path="url(#clip0_39_2407)">
<path d="M5.57374 4.52661C3.97509 5.0812 2.59642 6.13382 1.64023 7.52987C0.684041 8.92591 0.200732 10.5918 0.261296 12.2828C0.32186 13.9738 0.923104 15.6009 1.97671 16.925C3.03032 18.249 4.48077 19.2003 6.11499 19.6391C7.4399 19.981 8.828 19.996 10.16 19.6829C11.3666 19.4118 12.4822 18.8321 13.3975 18.0004C14.3501 17.1083 15.0415 15.9735 15.3975 14.7179C15.7844 13.3524 15.8532 11.9165 15.5987 10.5204H8.15874V13.6066H12.4675C12.3814 14.0988 12.1968 14.5687 11.9249 14.9879C11.653 15.4072 11.2993 15.7672 10.885 16.0466C10.3588 16.3947 9.76574 16.6288 9.14374 16.7341C8.51992 16.8501 7.88006 16.8501 7.25624 16.7341C6.62398 16.6034 6.02587 16.3424 5.49999 15.9679C4.65518 15.3698 4.02084 14.5203 3.68749 13.5404C3.34851 12.5421 3.34851 11.4599 3.68749 10.4616C3.92478 9.76188 4.31703 9.12478 4.83499 8.59786C5.42773 7.9838 6.17816 7.54486 7.00394 7.32921C7.82972 7.11356 8.69894 7.12953 9.51624 7.37536C10.1547 7.57135 10.7386 7.91379 11.2212 8.37536C11.7071 7.89203 12.1921 7.40745 12.6762 6.92161C12.9262 6.66036 13.1987 6.41161 13.445 6.14411C12.7082 5.45846 11.8433 4.92494 10.9 4.57411C9.18212 3.95035 7.30246 3.93359 5.57374 4.52661Z" fill="white"/>
<path d="M5.57372 4.52722C7.3023 3.93379 9.18196 3.95011 10.9 4.57347C11.8435 4.92668 12.708 5.46277 13.4437 6.15097C13.1937 6.41847 12.93 6.66847 12.675 6.92847C12.19 7.41264 11.7054 7.89514 11.2212 8.37597C10.7385 7.91439 10.1547 7.57196 9.51622 7.37597C8.69919 7.12927 7.82999 7.11238 7.00399 7.32715C6.178 7.54192 5.42711 7.98005 4.83372 8.59347C4.31576 9.12039 3.9235 9.75749 3.68622 10.4572L1.09497 8.45097C2.02248 6.61167 3.62841 5.20475 5.57372 4.52722Z" fill="#E33629"/>
<path d="M0.40756 10.4367C0.546836 9.74646 0.778064 9.078 1.09506 8.44922L3.68631 10.4605C3.34733 11.4587 3.34733 12.541 3.68631 13.5392C2.82298 14.2059 1.95923 14.8759 1.09506 15.5492C0.301498 13.9696 0.0594757 12.1698 0.40756 10.4367Z" fill="#F8BD00"/>
<path d="M8.15876 10.5195H15.5988C15.8533 11.9157 15.7844 13.3516 15.3975 14.717C15.0416 15.9726 14.3501 17.1075 13.3975 17.9995C12.5613 17.347 11.7213 16.6995 10.885 16.047C11.2996 15.7674 11.6535 15.4069 11.9254 14.9872C12.1973 14.5675 12.3817 14.0972 12.4675 13.6045H8.15876C8.15751 12.577 8.15876 11.5483 8.15876 10.5195Z" fill="#587DBD"/>
<path d="M1.09375 15.5491C1.95792 14.8824 2.82167 14.2124 3.685 13.5391C4.01901 14.5193 4.65426 15.3689 5.5 15.9666C6.02751 16.3394 6.62691 16.5982 7.26 16.7266C7.88382 16.8426 8.52368 16.8426 9.1475 16.7266C9.76949 16.6213 10.3626 16.3871 10.8888 16.0391C11.725 16.6916 12.565 17.3391 13.4012 17.9916C12.4861 18.8237 11.3705 19.4039 10.1637 19.6753C8.83176 19.9884 7.44365 19.9734 6.11875 19.6316C5.07088 19.3518 4.09209 18.8586 3.24375 18.1828C2.34583 17.4699 1.61244 16.5715 1.09375 15.5491Z" fill="#319F43"/>
</g>
<path d="M34.16 18L34 16.4H33.92C33.6747 16.7093 33.3493 17.0027 32.944 17.28C32.1013 17.8667 31.1733 18.16 30.16 18.16C28.656 18.16 27.3867 17.6213 26.352 16.544C25.3173 15.4667 24.8 14.0853 24.8 12.4C24.8 10.7147 25.3173 9.33333 26.352 8.256C27.3867 7.17867 28.656 6.64 30.16 6.64C31.2907 6.64 32.3093 6.96 33.216 7.6C34.1333 8.24 34.768 9.09333 35.12 10.16H33.76C33.44 9.44533 32.9547 8.88 32.304 8.464C31.6533 8.048 30.9387 7.84 30.16 7.84C29.0187 7.84 28.0533 8.26667 27.264 9.12C26.4747 9.96267 26.08 11.056 26.08 12.4C26.08 13.744 26.4747 14.8427 27.264 15.696C28.0533 16.5387 29.0187 16.96 30.16 16.96C31.152 16.96 32.0267 16.608 32.784 15.904C33.5413 15.2 33.92 14.4053 33.92 13.52V13.36H30.56V12.24H35.2V18H34.16ZM43.6085 17.008C42.8832 17.776 41.9712 18.16 40.8725 18.16C39.7738 18.16 38.8565 17.776 38.1205 17.008C37.3952 16.2293 37.0325 15.2267 37.0325 14C37.0325 12.7733 37.3952 11.776 38.1205 11.008C38.8565 10.2293 39.7738 9.84 40.8725 9.84C41.9712 9.84 42.8832 10.2293 43.6085 11.008C44.3445 11.776 44.7125 12.7733 44.7125 14C44.7125 15.2267 44.3445 16.2293 43.6085 17.008ZM38.9845 16.192C39.4965 16.7573 40.1258 17.04 40.8725 17.04C41.6192 17.04 42.2432 16.7573 42.7445 16.192C43.2565 15.6267 43.5125 14.896 43.5125 14C43.5125 13.104 43.2565 12.3733 42.7445 11.808C42.2432 11.2427 41.6192 10.96 40.8725 10.96C40.1258 10.96 39.4965 11.2427 38.9845 11.808C38.4832 12.3733 38.2325 13.104 38.2325 14C38.2325 14.896 38.4832 15.6267 38.9845 16.192ZM52.6416 17.008C51.9163 17.776 51.0043 18.16 49.9056 18.16C48.807 18.16 47.8896 17.776 47.1536 17.008C46.4283 16.2293 46.0656 15.2267 46.0656 14C46.0656 12.7733 46.4283 11.776 47.1536 11.008C47.8896 10.2293 48.807 9.84 49.9056 9.84C51.0043 9.84 51.9163 10.2293 52.6416 11.008C53.3776 11.776 53.7456 12.7733 53.7456 14C53.7456 15.2267 53.3776 16.2293 52.6416 17.008ZM48.0176 16.192C48.5296 16.7573 49.159 17.04 49.9056 17.04C50.6523 17.04 51.2763 16.7573 51.7776 16.192C52.2896 15.6267 52.5456 14.896 52.5456 14C52.5456 13.104 52.2896 12.3733 51.7776 11.808C51.2763 11.2427 50.6523 10.96 49.9056 10.96C49.159 10.96 48.5296 11.2427 48.0176 11.808C47.5163 12.3733 47.2656 13.104 47.2656 14C47.2656 14.896 47.5163 15.6267 48.0176 16.192ZM55.4187 18.64H56.6187C56.6614 19.088 56.8907 19.4667 57.3067 19.776C57.7227 20.0853 58.2934 20.24 59.0188 20.24C59.7441 20.24 60.3254 20.0373 60.7628 19.632C61.2001 19.2267 61.4188 18.6827 61.4188 18V16.56H61.3387C60.6774 17.3067 59.8241 17.68 58.7787 17.68C57.7227 17.68 56.8427 17.3173 56.1387 16.592C55.4454 15.856 55.0987 14.912 55.0987 13.76C55.0987 12.608 55.4454 11.6693 56.1387 10.944C56.8427 10.208 57.7227 9.84 58.7787 9.84C59.2908 9.84 59.7708 9.952 60.2188 10.176C60.6774 10.3893 61.0508 10.6773 61.3387 11.04H61.4188L61.5788 10H62.6188V18C62.6188 19.0133 62.2934 19.824 61.6428 20.432C61.0028 21.0507 60.1281 21.36 59.0188 21.36C57.9521 21.36 57.0934 21.088 56.4427 20.544C55.8027 20.0107 55.4614 19.376 55.4187 18.64ZM57.0187 15.792C57.5094 16.304 58.1227 16.56 58.8587 16.56C59.5947 16.56 60.2028 16.304 60.6828 15.792C61.1734 15.2693 61.4188 14.592 61.4188 13.76C61.4188 12.928 61.1734 12.256 60.6828 11.744C60.2028 11.2213 59.5947 10.96 58.8587 10.96C58.1227 10.96 57.5094 11.2213 57.0187 11.744C56.5387 12.256 56.2987 12.928 56.2987 13.76C56.2987 14.592 56.5387 15.2693 57.0187 15.792ZM65.02 18V6.8H66.22V18H65.02ZM74.1338 15.76H75.4138C75.1364 16.528 74.6991 17.12 74.1018 17.536C73.5151 17.952 72.8058 18.16 71.9738 18.16C70.8751 18.16 69.9578 17.776 69.2218 17.008C68.4964 16.2293 68.1338 15.2267 68.1338 14C68.1338 12.7733 68.4964 11.776 69.2218 11.008C69.9578 10.2293 70.8751 9.84 71.9738 9.84C73.0298 9.84 73.9044 10.2027 74.5978 10.928C75.3018 11.6533 75.6538 12.5707 75.6538 13.68C75.6538 13.8507 75.6378 14.08 75.6058 14.368L75.5738 14.56H69.3338C69.4191 15.3067 69.7071 15.9093 70.1978 16.368C70.6991 16.816 71.2911 17.04 71.9738 17.04C72.4538 17.04 72.8804 16.928 73.2538 16.704C73.6378 16.48 73.9311 16.1653 74.1338 15.76ZM69.3338 13.44H74.4538C74.4111 12.7147 74.1551 12.1227 73.6858 11.664C73.2271 11.1947 72.6564 10.96 71.9738 10.96C71.2591 10.96 70.6618 11.1893 70.1818 11.648C69.7018 12.1067 69.4191 12.704 69.3338 13.44Z" fill="#333333"/>
<defs>
<clipPath id="clip0_39_2407">
<rect width="16" height="16" fill="white" transform="translate(0 4)"/>
</clipPath>
</defs>
</svg>
