<svg width="32" height="32" viewBox="0 0 32 32" fill="none" xmlns="http://www.w3.org/2000/svg">
<path d="M12.0001 29.3327H20.0001C26.6667 29.3327 29.3334 26.666 29.3334 19.9993V11.9993C29.3334 5.33268 26.6667 2.66602 20.0001 2.66602H12.0001C5.33341 2.66602 2.66675 5.33268 2.66675 11.9993V19.9993C2.66675 26.666 5.33341 29.3327 12.0001 29.3327Z" stroke="#292D32" stroke-opacity="0.65" stroke-width="1.5" stroke-linecap="round" stroke-linejoin="round"/>
<path d="M21.7068 18.1475C20.2001 19.6542 18.0401 20.1208 16.1334 19.5208L12.6801 22.9608C12.4401 23.2142 11.9468 23.3742 11.5868 23.3208L9.98677 23.1075C9.45343 23.0408 8.97343 22.5342 8.89343 22.0142L8.6801 20.4142C8.62677 20.0675 8.8001 19.5742 9.0401 19.3208L12.4801 15.8808C11.8934 13.9742 12.3468 11.8142 13.8534 10.3075C16.0134 8.1475 19.5334 8.1475 21.7068 10.3075C23.8668 12.4542 23.8668 15.9742 21.7068 18.1475Z" stroke="#292D32" stroke-opacity="0.65" stroke-width="1.5" stroke-miterlimit="10" stroke-linecap="round" stroke-linejoin="round"/>
<path d="M13.9334 21.7072L12.8 20.5605" stroke="#292D32" stroke-opacity="0.65" stroke-width="1.5" stroke-miterlimit="10" stroke-linecap="round" stroke-linejoin="round"/>
<path d="M17.8593 14.2663H17.8713" stroke="#292D32" stroke-opacity="0.65" stroke-width="2" stroke-linecap="round" stroke-linejoin="round"/>
</svg>
