<svg width="32" height="32" viewBox="0 0 32 32" fill="none" xmlns="http://www.w3.org/2000/svg">
    <path d="M11.333 25.333h-.666c-5.334 0-8-1.334-8-8v-6.667c0-5.333 2.666-8 8-8h10.666c5.334 0 8 2.667 8 8v6.667c0 5.333-2.666 8-8 8h-.666c-.414 0-.814.2-1.067.533l-2 2.667c-.88 1.173-2.32 1.173-3.2 0l-2-2.667c-.213-.293-.707-.533-1.067-.533z" stroke="#292D32" stroke-opacity=".65" stroke-width="1.5" stroke-miterlimit="10" stroke-linecap="round" stroke-linejoin="round"/>
    <path d="M21.328 14.667h.012M15.994 14.667h.012M10.66 14.667h.011" stroke="#292D32" stroke-opacity=".65" stroke-width="2" stroke-linecap="round" stroke-linejoin="round"/>
</svg>
