<svg width="35" height="27" viewBox="0 0 35 27" fill="none" xmlns="http://www.w3.org/2000/svg">
<path fill-rule="evenodd" clip-rule="evenodd" d="M4.2 0.5C3.35131 0.5 2.53737 0.84241 1.93726 1.4519C1.33714 2.0614 1 2.88805 1 3.75V23.25C1 24.112 1.33714 24.9386 1.93726 25.5481C2.53737 26.1576 3.35131 26.5 4.2 26.5H29.8C30.6487 26.5 31.4626 26.1576 32.0627 25.5481C32.6629 24.9386 33 24.112 33 23.25V3.75C33 2.88805 32.6629 2.0614 32.0627 1.4519C31.4626 0.84241 30.6487 0.5 29.8 0.5H4.2ZM20.2 8.625C20.2 8.19402 20.3686 7.7807 20.6686 7.47595C20.9687 7.17121 21.3757 7 21.8 7H26.6C27.0243 7 27.4313 7.17121 27.7314 7.47595C28.0314 7.7807 28.2 8.19402 28.2 8.625C28.2 9.05598 28.0314 9.4693 27.7314 9.77405C27.4313 10.0788 27.0243 10.25 26.6 10.25H21.8C21.3757 10.25 20.9687 10.0788 20.6686 9.77405C20.3686 9.4693 20.2 9.05598 20.2 8.625ZM20.2 13.5C20.2 13.069 20.3686 12.6557 20.6686 12.351C20.9687 12.0462 21.3757 11.875 21.8 11.875H26.6C27.0243 11.875 27.4313 12.0462 27.7314 12.351C28.0314 12.6557 28.2 13.069 28.2 13.5C28.2 13.931 28.0314 14.3443 27.7314 14.649C27.4313 14.9538 27.0243 15.125 26.6 15.125H21.8C21.3757 15.125 20.9687 14.9538 20.6686 14.649C20.3686 14.3443 20.2 13.931 20.2 13.5ZM20.2 18.375C20.2 17.944 20.3686 17.5307 20.6686 17.226C20.9687 16.9212 21.3757 16.75 21.8 16.75H26.6C27.0243 16.75 27.4313 16.9212 27.7314 17.226C28.0314 17.5307 28.2 17.944 28.2 18.375C28.2 18.806 28.0314 19.2193 27.7314 19.524C27.4313 19.8288 27.0243 20 26.6 20H21.8C21.3757 20 20.9687 19.8288 20.6686 19.524C20.3686 19.2193 20.2 18.806 20.2 18.375ZM7.4 10.25C7.4 8.95707 7.90571 7.71709 8.80589 6.80285C9.70606 5.88861 10.927 5.375 12.2 5.375C13.473 5.375 14.6939 5.88861 15.5941 6.80285C16.4943 7.71709 17 8.95707 17 10.25C17 11.5429 16.4943 12.7829 15.5941 13.6971C14.6939 14.6114 13.473 15.125 12.2 15.125C10.927 15.125 9.70606 14.6114 8.80589 13.6971C7.90571 12.7829 7.4 11.5429 7.4 10.25ZM10.5072 16.75C9.49957 16.7496 8.51737 17.0713 7.6998 17.6695C6.88223 18.2677 6.27075 19.1121 5.952 20.0829L5.8816 20.299L5.8752 20.3185C5.808 20.5232 5.7872 20.5899 5.808 20.6354C5.8176 20.6565 5.84 20.6728 5.8688 20.6988C5.92 20.7394 5.9968 20.8027 6.1024 20.9506C6.25065 21.1594 6.4456 21.3294 6.6712 21.4466C6.89679 21.5638 7.14658 21.625 7.4 21.625H17C17.2534 21.625 17.5032 21.5638 17.7288 21.4466C17.9544 21.3294 18.1494 21.1594 18.2976 20.9506C18.3624 20.8551 18.4411 20.7701 18.5312 20.6988C18.5616 20.6728 18.5808 20.6565 18.592 20.6337C18.6144 20.5899 18.592 20.5232 18.5248 20.3185L18.5184 20.299L18.448 20.0829C18.1293 19.1123 17.5181 18.2682 16.7008 17.67C15.8836 17.0718 14.9018 16.75 13.8944 16.75H10.5072Z" fill="#9166EF"/>
</svg>
