<svg width="33" height="33" viewBox="0 0 33 33" fill="none" xmlns="http://www.w3.org/2000/svg">
<path d="M3.98792 26.655C3.3737 26.655 2.86125 26.4493 2.45059 26.0377C2.03992 25.6261 1.83414 25.1137 1.83325 24.5004V8.50037C1.83325 7.88704 2.03903 7.37459 2.45059 6.96304C2.86214 6.55148 3.37414 6.3457 3.98659 6.3457H29.0133C29.6266 6.3457 30.139 6.55148 30.5506 6.96304C30.9621 7.37459 31.1675 7.88704 31.1666 8.50037V24.5004C31.1666 25.1137 30.9613 25.6261 30.5506 26.0377C30.1399 26.4493 29.6275 26.655 29.0133 26.655H3.98792ZM12.4999 19.4737C13.4235 19.4737 14.2101 19.1488 14.8599 18.499C15.5097 17.8493 15.8341 17.0626 15.8333 16.139C15.8324 15.2155 15.5079 14.4297 14.8599 13.7817C14.2119 13.1337 13.4253 12.8088 12.4999 12.807C11.5746 12.8053 10.7879 13.1297 10.1399 13.7804C9.49192 14.431 9.16747 15.2177 9.16659 16.1404C9.1657 17.063 9.49014 17.8493 10.1399 18.499C10.7897 19.1488 11.5764 19.4746 12.4999 19.4737ZM4.78792 25.3204H20.2133C19.2799 24.115 18.1448 23.147 16.8079 22.4164C15.471 21.6857 14.035 21.3208 12.4999 21.3217C10.9648 21.3226 9.52925 21.6879 8.19325 22.4177C6.85725 23.1475 5.72214 24.1141 4.78792 25.3204ZM22.6546 16.5004C22.6546 15.9999 22.6901 15.5328 22.7613 15.099C22.8324 14.6653 22.9524 14.175 23.1213 13.6284H24.8839C25.0555 13.6284 25.2128 13.5928 25.3559 13.5217C25.4999 13.4488 25.6301 13.3408 25.7466 13.1977L26.5186 12.1777C26.6839 11.9626 26.7555 11.7226 26.7333 11.4577C26.711 11.1928 26.6035 10.9635 26.4106 10.7697L25.6559 10.0164C25.4461 9.8057 25.1973 9.69904 24.9093 9.69637C24.623 9.6937 24.3719 9.7977 24.1559 10.0084C23.2866 10.8626 22.6221 11.8519 22.1626 12.9764C21.7039 14.0999 21.4746 15.2746 21.4746 16.5004C21.4746 17.7261 21.7039 18.9008 22.1626 20.0244C22.6221 21.1488 23.2866 22.1381 24.1559 22.9924C24.3719 23.203 24.6235 23.307 24.9106 23.3044C25.1977 23.3017 25.4466 23.195 25.6573 22.9844L26.4106 22.231C26.6035 22.0381 26.711 21.8093 26.7333 21.5444C26.7555 21.2795 26.6839 21.0395 26.5186 20.8244L25.7453 19.803C25.6297 19.6599 25.4999 19.5524 25.3559 19.4804C25.2119 19.4084 25.055 19.3724 24.8853 19.3724H23.1199C22.9528 18.8701 22.8333 18.391 22.7613 17.935C22.6893 17.479 22.6537 17.0008 22.6546 16.5004Z" fill="#9166EF"/>
</svg>
