<svg width="47" height="47" viewBox="0 0 47 47" fill="none" xmlns="http://www.w3.org/2000/svg">
<rect width="47" height="47" rx="8" fill="#F7F2FF"/>
<path d="M10.9879 33.655C10.3737 33.655 9.86125 33.4493 9.45059 33.0377C9.03992 32.6261 8.83414 32.1137 8.83325 31.5004V15.5004C8.83325 14.887 9.03903 14.3746 9.45059 13.963C9.86214 13.5515 10.3741 13.3457 10.9866 13.3457H36.0133C36.6266 13.3457 37.139 13.5515 37.5506 13.963C37.9621 14.3746 38.1675 14.887 38.1666 15.5004V31.5004C38.1666 32.1137 37.9613 32.6261 37.5506 33.0377C37.1399 33.4493 36.6275 33.655 36.0133 33.655H10.9879ZM19.4999 26.4737C20.4235 26.4737 21.2101 26.1488 21.8599 25.499C22.5097 24.8493 22.8341 24.0626 22.8333 23.139C22.8324 22.2155 22.5079 21.4297 21.8599 20.7817C21.2119 20.1337 20.4253 19.8088 19.4999 19.807C18.5746 19.8053 17.7879 20.1297 17.1399 20.7804C16.4919 21.431 16.1675 22.2177 16.1666 23.1404C16.1657 24.063 16.4901 24.8493 17.1399 25.499C17.7897 26.1488 18.5764 26.4746 19.4999 26.4737ZM11.7879 32.3204H27.2133C26.2799 31.115 25.1448 30.147 23.8079 29.4164C22.471 28.6857 21.035 28.3208 19.4999 28.3217C17.9648 28.3226 16.5293 28.6879 15.1933 29.4177C13.8573 30.1475 12.7221 31.1141 11.7879 32.3204ZM29.6546 23.5004C29.6546 22.9999 29.6901 22.5328 29.7613 22.099C29.8324 21.6653 29.9524 21.175 30.1213 20.6284H31.8839C32.0555 20.6284 32.2128 20.5928 32.3559 20.5217C32.4999 20.4488 32.6301 20.3408 32.7466 20.1977L33.5186 19.1777C33.6839 18.9626 33.7555 18.7226 33.7333 18.4577C33.711 18.1928 33.6035 17.9635 33.4106 17.7697L32.6559 17.0164C32.4461 16.8057 32.1973 16.699 31.9093 16.6964C31.623 16.6937 31.3719 16.7977 31.1559 17.0084C30.2866 17.8626 29.6221 18.8519 29.1626 19.9764C28.7039 21.0999 28.4746 22.2746 28.4746 23.5004C28.4746 24.7261 28.7039 25.9008 29.1626 27.0244C29.6221 28.1488 30.2866 29.1381 31.1559 29.9924C31.3719 30.203 31.6235 30.307 31.9106 30.3044C32.1977 30.3017 32.4466 30.195 32.6573 29.9844L33.4106 29.231C33.6035 29.0381 33.711 28.8093 33.7333 28.5444C33.7555 28.2795 33.6839 28.0395 33.5186 27.8244L32.7453 26.803C32.6297 26.6599 32.4999 26.5524 32.3559 26.4804C32.2119 26.4084 32.055 26.3724 31.8853 26.3724H30.1199C29.9528 25.8701 29.8333 25.391 29.7613 24.935C29.6893 24.479 29.6537 24.0008 29.6546 23.5004Z" fill="#8C7AF3"/>
</svg>
