<svg width="47" height="47" viewBox="0 0 47 47" fill="none" xmlns="http://www.w3.org/2000/svg">
<rect width="47" height="47" rx="8" fill="#F7F2FF"/>
<path fill-rule="evenodd" clip-rule="evenodd" d="M11 12C10.2044 12 9.44129 12.3161 8.87868 12.8787C8.31607 13.4413 8 14.2044 8 15V33C8 33.7956 8.31607 34.5587 8.87868 35.1213C9.44129 35.6839 10.2044 36 11 36H35C35.7956 36 36.5587 35.6839 37.1213 35.1213C37.6839 34.5587 38 33.7956 38 33V15C38 14.2044 37.6839 13.4413 37.1213 12.8787C36.5587 12.3161 35.7956 12 35 12H11ZM26 19.5C26 19.1022 26.158 18.7206 26.4393 18.4393C26.7206 18.158 27.1022 18 27.5 18H32C32.3978 18 32.7794 18.158 33.0607 18.4393C33.342 18.7206 33.5 19.1022 33.5 19.5C33.5 19.8978 33.342 20.2794 33.0607 20.5607C32.7794 20.842 32.3978 21 32 21H27.5C27.1022 21 26.7206 20.842 26.4393 20.5607C26.158 20.2794 26 19.8978 26 19.5ZM26 24C26 23.6022 26.158 23.2206 26.4393 22.9393C26.7206 22.658 27.1022 22.5 27.5 22.5H32C32.3978 22.5 32.7794 22.658 33.0607 22.9393C33.342 23.2206 33.5 23.6022 33.5 24C33.5 24.3978 33.342 24.7794 33.0607 25.0607C32.7794 25.342 32.3978 25.5 32 25.5H27.5C27.1022 25.5 26.7206 25.342 26.4393 25.0607C26.158 24.7794 26 24.3978 26 24ZM26 28.5C26 28.1022 26.158 27.7206 26.4393 27.4393C26.7206 27.158 27.1022 27 27.5 27H32C32.3978 27 32.7794 27.158 33.0607 27.4393C33.342 27.7206 33.5 28.1022 33.5 28.5C33.5 28.8978 33.342 29.2794 33.0607 29.5607C32.7794 29.842 32.3978 30 32 30H27.5C27.1022 30 26.7206 29.842 26.4393 29.5607C26.158 29.2794 26 28.8978 26 28.5ZM14 21C14 19.8065 14.4741 18.6619 15.318 17.818C16.1619 16.9741 17.3065 16.5 18.5 16.5C19.6935 16.5 20.8381 16.9741 21.682 17.818C22.5259 18.6619 23 19.8065 23 21C23 22.1935 22.5259 23.3381 21.682 24.182C20.8381 25.0259 19.6935 25.5 18.5 25.5C17.3065 25.5 16.1619 25.0259 15.318 24.182C14.4741 23.3381 14 22.1935 14 21ZM16.913 27C15.9683 26.9997 15.0475 27.2966 14.2811 27.8488C13.5146 28.401 12.9413 29.1804 12.6425 30.0765L12.5765 30.276L12.5705 30.294C12.5075 30.483 12.488 30.5445 12.5075 30.5865C12.5165 30.606 12.5375 30.621 12.5645 30.645C12.6125 30.6825 12.6845 30.741 12.7835 30.8775C12.9225 31.0702 13.1052 31.2271 13.3167 31.3353C13.5282 31.4436 13.7624 31.5 14 31.5H23C23.2376 31.5 23.4718 31.4436 23.6833 31.3353C23.8948 31.2271 24.0775 31.0702 24.2165 30.8775C24.2772 30.7893 24.3511 30.7109 24.4355 30.645C24.464 30.621 24.482 30.606 24.4925 30.585C24.5135 30.5445 24.4925 30.483 24.4295 30.294L24.4235 30.276L24.3575 30.0765C24.0588 29.1806 23.4857 28.4014 22.7195 27.8492C21.9534 27.2971 21.0329 27 20.0885 27H16.913Z" fill="#7F6EE3"/>
</svg>
