<svg width="193" height="43" viewBox="0 0 193 43" fill="none" xmlns="http://www.w3.org/2000/svg">
<path d="M30.5024 12.3408H22.5931C22.4876 11.5288 22.2714 10.7958 21.9445 10.142C21.6176 9.48814 21.1852 8.92922 20.6474 8.4652C20.1095 8.00119 19.4715 7.6479 18.7333 7.40535C18.0056 7.15225 17.1989 7.0257 16.313 7.0257C14.7417 7.0257 13.3866 7.41062 12.2476 8.18046C11.1192 8.95031 10.2492 10.0629 9.63755 11.5182C9.03644 12.9735 8.73588 14.7347 8.73588 16.8017C8.73588 18.953 9.04171 20.7563 9.65337 22.2116C10.2756 23.6564 11.1456 24.7479 12.2635 25.4861C13.3919 26.2138 14.7259 26.5776 16.2656 26.5776C17.1303 26.5776 17.916 26.4669 18.6226 26.2454C19.3397 26.024 19.9672 25.7023 20.505 25.2805C21.0534 24.8481 21.5016 24.3261 21.8496 23.7144C22.2081 23.0922 22.456 22.3909 22.5931 21.6105L30.5024 21.658C30.3653 23.0922 29.9488 24.5054 29.2527 25.8974C28.5673 27.2895 27.6234 28.5602 26.4212 29.7097C25.219 30.8487 23.7531 31.7556 22.0236 32.4305C20.3046 33.1055 18.3326 33.4429 16.1074 33.4429C13.1757 33.4429 10.5498 32.7996 8.22969 31.513C5.92016 30.2159 4.09573 28.3282 2.75642 25.8499C1.4171 23.3717 0.747441 20.3556 0.747441 16.8017C0.747441 13.2372 1.42765 10.2158 2.78805 7.73754C4.14846 5.25928 5.9887 3.37685 8.30878 2.09026C10.6289 0.803677 13.2284 0.160383 16.1074 0.160383C18.0689 0.160383 19.8828 0.434574 21.549 0.982956C23.2153 1.52079 24.6811 2.31172 25.9466 3.35576C27.2121 4.38925 28.2403 5.66002 29.0313 7.16807C29.8222 8.67612 30.3126 10.4004 30.5024 12.3408ZM41.8326 33.4113C40.2823 33.4113 38.9061 33.1529 37.7039 32.6362C36.5122 32.1089 35.5683 31.3179 34.8723 30.2634C34.1868 29.1982 33.8441 27.8642 33.8441 26.2612C33.8441 24.9114 34.0814 23.7724 34.556 22.8444C35.0305 21.9164 35.6844 21.1623 36.5175 20.5823C37.3506 20.0023 38.3103 19.5647 39.3965 19.2694C40.4827 18.9635 41.6427 18.7579 42.8766 18.6524C44.2581 18.5259 45.3707 18.3941 46.2143 18.257C47.058 18.1093 47.6697 17.9037 48.0493 17.64C48.4395 17.3659 48.6346 16.9809 48.6346 16.4853V16.4062C48.6346 15.5942 48.3551 14.9667 47.7962 14.5238C47.2373 14.0808 46.4833 13.8594 45.5341 13.8594C44.5112 13.8594 43.6886 14.0808 43.0664 14.5238C42.4442 14.9667 42.0487 15.5783 41.88 16.3587L34.7458 16.1056C34.9567 14.6292 35.4998 13.311 36.3751 12.151C37.2609 10.9804 38.4737 10.0629 40.0134 9.3985C41.5636 8.72357 43.425 8.38611 45.5974 8.38611C47.1476 8.38611 48.5766 8.57066 49.8843 8.93976C51.1919 9.29832 52.3309 9.82561 53.3011 10.5216C54.2713 11.2071 55.0201 12.0508 55.5474 13.0526C56.0852 14.0545 56.3541 15.1987 56.3541 16.4853V33H49.0775V29.6148H48.8877C48.4553 30.4374 47.9017 31.1334 47.2267 31.7029C46.5623 32.2723 45.7767 32.6994 44.8697 32.9842C43.9734 33.2689 42.961 33.4113 41.8326 33.4113ZM44.2212 28.3493C45.0543 28.3493 45.803 28.1806 46.4674 27.8431C47.1424 27.5056 47.6802 27.0416 48.0809 26.4511C48.4817 25.8499 48.682 25.1539 48.682 24.363V22.0535C48.4606 22.1695 48.1917 22.2749 47.8753 22.3698C47.5695 22.4647 47.232 22.5544 46.8629 22.6388C46.4938 22.7231 46.1141 22.7969 45.724 22.8602C45.3338 22.9235 44.9594 22.9815 44.6008 23.0342C43.8732 23.1502 43.251 23.3295 42.7342 23.5721C42.228 23.8146 41.8378 24.131 41.5636 24.5212C41.3 24.9008 41.1682 25.3543 41.1682 25.8816C41.1682 26.6831 41.4529 27.2947 42.0224 27.7166C42.6024 28.1384 43.3353 28.3493 44.2212 28.3493ZM61.0839 33V8.70248H68.5978V13.1317H68.8509C69.2938 11.5288 70.0162 10.3371 71.0181 9.55669C72.0199 8.76575 73.1852 8.37029 74.514 8.37029C74.8725 8.37029 75.2417 8.39665 75.6213 8.44938C76.0009 8.49156 76.3542 8.56011 76.6812 8.65503V15.378C76.3121 15.2514 75.8269 15.1512 75.2258 15.0774C74.6353 15.0036 74.108 14.9667 73.644 14.9667C72.7265 14.9667 71.8986 15.1723 71.1604 15.5836C70.4328 15.9844 69.858 16.5486 69.4362 17.2762C69.0249 17.9933 68.8193 18.837 68.8193 19.8072V33H61.0839ZM79.833 33V8.70248H87.3469V13.1317H87.6C88.0429 11.5288 88.7653 10.3371 89.7672 9.55669C90.769 8.76575 91.9343 8.37029 93.2631 8.37029C93.6216 8.37029 93.9908 8.39665 94.3704 8.44938C94.75 8.49156 95.1033 8.56011 95.4303 8.65503V15.378C95.0611 15.2514 94.576 15.1512 93.9749 15.0774C93.3844 15.0036 92.8571 14.9667 92.3931 14.9667C91.4756 14.9667 90.6477 15.1723 89.9095 15.5836C89.1819 15.9844 88.6071 16.5486 88.1853 17.2762C87.774 17.9933 87.5684 18.837 87.5684 19.8072V33H79.833ZM104.051 42.1116C103.123 42.1116 102.248 42.0377 101.426 41.8901C100.603 41.753 99.8964 41.5685 99.3058 41.3365L101.014 35.7208C101.774 35.9739 102.459 36.1216 103.071 36.1637C103.693 36.2059 104.225 36.1057 104.668 35.8632C105.122 35.6312 105.47 35.2146 105.712 34.6135L106.013 33.8858L97.3759 8.70248H105.475L109.952 26.0398H110.205L114.745 8.70248H122.892L113.732 35.3253C113.29 36.6541 112.662 37.8247 111.85 38.8371C111.049 39.86 110.01 40.6615 108.734 41.2415C107.468 41.8216 105.908 42.1116 104.051 42.1116ZM155.027 0.603307H162.842V21.4998C162.842 23.9148 162.267 26.0187 161.117 27.8115C159.968 29.5937 158.365 30.9752 156.309 31.956C154.252 32.9262 151.863 33.4113 149.143 33.4113C146.39 33.4113 143.986 32.9262 141.929 31.956C139.873 30.9752 138.275 29.5937 137.136 27.8115C135.997 26.0187 135.428 23.9148 135.428 21.4998V0.603307H143.258V20.8196C143.258 21.9375 143.501 22.934 143.986 23.8093C144.481 24.6846 145.172 25.3701 146.058 25.8658C146.944 26.3614 147.972 26.6092 149.143 26.6092C150.313 26.6092 151.336 26.3614 152.211 25.8658C153.097 25.3701 153.788 24.6846 154.284 23.8093C154.779 22.934 155.027 21.9375 155.027 20.8196V0.603307ZM167.749 33V0.603307H181.132C183.558 0.603307 185.651 1.07787 187.412 2.02699C189.184 2.96556 190.549 4.27852 191.509 5.96584C192.469 7.64263 192.949 9.5936 192.949 11.8188C192.949 14.0545 192.458 16.0107 191.477 17.6875C190.507 19.3537 189.12 20.6456 187.317 21.5631C185.514 22.4806 183.373 22.9393 180.895 22.9393H172.637V16.77H179.439C180.621 16.77 181.607 16.5644 182.397 16.1531C183.199 15.7418 183.805 15.1671 184.217 14.4288C184.628 13.6801 184.834 12.8101 184.834 11.8188C184.834 10.8169 184.628 9.95216 184.217 9.2245C183.805 8.48629 183.199 7.91682 182.397 7.51608C181.596 7.11534 180.61 6.91497 179.439 6.91497H175.58V33H167.749Z" fill="url(#paint0_linear_103_4716)"/>
<defs>
<linearGradient id="paint0_linear_103_4716" x1="508.159" y1="16.5574" x2="-304.868" y2="16.5574" gradientUnits="userSpaceOnUse">
<stop offset="0.0001" stop-color="#00F0FF"/>
<stop offset="0.975" stop-color="#E600FF"/>
</linearGradient>
</defs>
</svg>
