<svg width="24" height="27" viewBox="0 0 24 27" fill="none" xmlns="http://www.w3.org/2000/svg">
<path d="M15.58 13C15.58 14.98 13.98 16.58 12 16.58C10.02 16.58 8.42001 14.98 8.42001 13C8.42001 11.02 10.02 9.42001 12 9.42001C13.98 9.42001 15.58 11.02 15.58 13Z" stroke="#5C5C5C" stroke-width="1.5" stroke-linecap="round" stroke-linejoin="round"/>
<path d="M12 21.27C15.53 21.27 18.82 19.19 21.11 15.59C22.01 14.18 22.01 11.81 21.11 10.4C18.82 6.8 15.53 4.72 12 4.72C8.47 4.72 5.18 6.8 2.89 10.4C1.99 11.81 1.99 14.18 2.89 15.59C5.18 19.19 8.47 21.27 12 21.27Z" stroke="#5C5C5C" stroke-width="1.5" stroke-linecap="round" stroke-linejoin="round"/>
</svg>
