<svg width="32" height="32" viewBox="0 0 32 32" fill="none" xmlns="http://www.w3.org/2000/svg">
<path d="M16 25.3346C20.4133 25.3346 24 21.748 24 17.3346V10.668C24 6.25464 20.4133 2.66797 16 2.66797C11.5867 2.66797 8 6.25464 8 10.668V17.3346C8 21.748 11.5867 25.3346 16 25.3346Z" stroke="#292D32" stroke-opacity="0.65" stroke-width="1.5" stroke-linecap="round" stroke-linejoin="round"/>
<path d="M4 14.668V17.3346C4 23.9613 9.37333 29.3346 16 29.3346C22.6267 29.3346 28 23.9613 28 17.3346V14.668" stroke="#292D32" stroke-opacity="0.65" stroke-width="1.5" stroke-linecap="round" stroke-linejoin="round"/>
<path d="M12.1467 9.97422C14.5201 9.10755 17.1067 9.10755 19.4801 9.97422" stroke="#292D32" stroke-opacity="0.65" stroke-width="1.5" stroke-linecap="round" stroke-linejoin="round"/>
<path d="M13.3733 13.9745C14.9733 13.5345 16.6666 13.5345 18.2666 13.9745" stroke="#292D32" stroke-opacity="0.65" stroke-width="1.5" stroke-linecap="round" stroke-linejoin="round"/>
</svg>
