<svg width="129" height="129" viewBox="0 0 129 129" fill="none" xmlns="http://www.w3.org/2000/svg">
<path d="M129 67.5234C129 72.0334 127.917 76.2158 125.75 80.0455C123.583 83.8752 120.686 86.8734 117.032 88.9647C117.133 89.6449 117.183 90.7031 117.183 92.1393C117.183 98.9672 114.891 104.762 110.355 109.549C105.795 114.362 100.303 116.755 93.8777 116.755C91.0055 116.755 88.2592 116.226 85.6641 115.168C83.6484 119.3 80.751 122.626 76.9465 125.17C73.1672 127.74 69.01 129 64.5 129C59.8893 129 55.7068 127.765 51.9779 125.246C48.2238 122.752 45.3516 119.401 43.3359 115.168C40.7408 116.226 38.0197 116.755 35.1223 116.755C28.6975 116.755 23.1797 114.362 18.5689 109.549C13.9582 104.762 11.6654 98.942 11.6654 92.1393C11.6654 91.3834 11.7662 90.3252 11.9426 88.9647C8.28926 86.8482 5.3918 83.8752 3.225 80.0455C1.0834 76.2158 0 72.0334 0 67.5234C0 62.7363 1.20938 58.3271 3.60293 54.3463C5.99648 50.3654 9.22148 47.4176 13.2527 45.5027C12.1945 42.6305 11.6654 39.733 11.6654 36.8607C11.6654 30.058 13.9582 24.2379 18.5689 19.4508C23.1797 14.6637 28.6975 12.2449 35.1223 12.2449C37.9945 12.2449 40.7408 12.774 43.3359 13.8322C45.3516 9.7002 48.249 6.37441 52.0535 3.82969C55.8328 1.28496 59.99 0 64.5 0C69.01 0 73.1672 1.28496 76.9465 3.80449C80.7258 6.34922 83.6484 9.675 85.6641 13.807C88.2592 12.7488 90.9803 12.2197 93.8777 12.2197C100.303 12.2197 105.795 14.6133 110.355 19.4256C114.916 24.2379 117.183 30.0328 117.183 36.8355C117.183 40.0102 116.705 42.8824 115.747 45.4775C119.779 47.3924 123.004 50.3402 125.397 54.3211C127.791 58.3271 129 62.7363 129 67.5234ZM61.7537 86.949L88.3852 47.0648C89.0654 46.0066 89.267 44.8477 89.0402 43.6131C88.7883 42.3785 88.1584 41.3959 87.1002 40.7408C86.042 40.0605 84.883 39.8338 83.6484 40.0102C82.3887 40.2117 81.3809 40.8164 80.625 41.8746L57.1682 77.148L46.3594 66.3644C45.402 65.407 44.2934 64.9535 43.0588 65.0039C41.799 65.0543 40.7156 65.5078 39.7582 66.3644C38.9016 67.2211 38.4732 68.3045 38.4732 69.6146C38.4732 70.8996 38.9016 71.983 39.7582 72.8648L54.5982 87.7049L55.3289 88.2844C56.1855 88.8639 57.0674 89.141 57.924 89.141C59.6121 89.1158 60.8971 88.4104 61.7537 86.949Z" fill="url(#paint0_linear_233_4550)"/>
<defs>
<linearGradient id="paint0_linear_233_4550" x1="-3.1155e-07" y1="65.2588" x2="129" y2="65.2588" gradientUnits="userSpaceOnUse">
<stop stop-color="#DA99FF"/>
<stop offset="1" stop-color="#9CD9FF"/>
</linearGradient>
</defs>
</svg>
